<svg xmlns="http://www.w3.org/2000/svg" version="1.0" width="192" height="192"><path d="M74 133v52h44v-52l44 26 22-38-44-25 44-26-22-38-45 26V7H74v51L30 32 8 70l44 26-44 25 22 38z" fill="none" stroke="#33b" stroke-width="6"/><path d="M74 133v52h44v-52l44 26 22-38-44-25 44-26-22-38-45 26V7H74v51L30 32 8 70l44 26-44 25 22 38z" fill="#00b" fill-rule="evenodd" stroke="#fff" stroke-width="2"/><g fill="#fff" fill-rule="evenodd" stroke="#33b" stroke-width="2"><path d="M93 166c0 7 6 7 6 0l3-138c0-8-12-8-12 0l3 135v3z"/><path d="M100 153c7 4 3 15-3 15 2-5 3-9 3-15zm1-40c10 9 4 22-3 26-6 3-6 7-6 15-9-10-4-19 4-24 5-4 5-10 5-17zm1-30c0 11-17 14-17 22 0 3 1 9 6 12 0-11 9-12 15-18 7-7 7-19-4-28v12zm-12-6c-10-8-14-22-10-31 3-10 20-11 20-3s-20 3-13 16l3 5v13z"/><path d="M95 43c7-3-7-3 0 0z" fill="#33b" stroke="none"/></g></svg>