<svg xmlns="http://www.w3.org/2000/svg" xmlns:xlink="http://www.w3.org/1999/xlink" height="140" width="140"><defs><linearGradient id="a" x1="-3.49%" x2="100.83%" y1="17.02%" y2="92.9%"><stop offset="0%" stop-color="#fff" stop-opacity=".1"/><stop offset="14%" stop-color="#fff" stop-opacity=".08"/><stop offset="61%" stop-color="#fff" stop-opacity=".02"/><stop offset="100%" stop-color="#fff" stop-opacity="0"/></linearGradient><path id="b" d="M106.687 35.274c-.186-1.098-.967-2-2.024-2.338s-2.215-.057-3 .73l-15.416 15.5-12.12-23.145a2.965 2.965 0 00-5.254-.001l-6.628 12.656L45.62 7.573a2.966 2.966 0 00-5.552.953L24 111.7l42.973 24.165a8.882 8.882 0 008.683 0L119 111.701l-12.313-76.427z"/></defs><path fill="#ffa000" d="M23.833 111.719L39.966 8.49a2.98 2.98 0 015.57-.946L62.22 38.662 68.87 26a2.98 2.98 0 015.273 0l45.023 85.719H23.833z"/><path fill="#f57c00" d="M79.566 71.507l-17.354-32.86-38.379 73.072 55.733-40.212z"/><path fill="#ffca28" d="M119.167 111.719l-12.356-76.46a2.981 2.981 0 00-5.042-1.61l-77.936 78.069L66.957 135.9a8.937 8.937 0 008.714 0l43.496-24.183z"/><path fill="#fff" fill-opacity=".2" d="M106.81 35.258c-.186-1.098-.97-2-2.031-2.34s-2.223-.057-3.01.73L86.3 49.157 74.137 26a2.98 2.98 0 00-5.274 0l-6.65 12.662L45.53 7.545a2.98 2.98 0 00-5.571.953l-16.125 103.22h-.052l.052.06.425.209 77.488-77.578a2.98 2.98 0 015.05 1.609l12.251 75.775.12-.074-12.356-76.46zm-82.835 76.32l15.99-102.35a2.98 2.98 0 015.572-.953L62.22 39.392l6.65-12.662a2.98 2.98 0 015.273 0L86.06 49.395l-62.086 62.182z"/><path fill="#a52714" opacity=".2" d="M75.67 135.172a8.937 8.937 0 01-8.713 0l-43.02-24.116-.104.663 43.124 24.176a8.937 8.937 0 008.714 0l43.495-24.176-.111-.685-43.384 24.138z"/><use fill="url(#a)" xlink:href="#b"/></svg>